<svg width="506" height="481" viewBox="0 0 506 481" fill="none" xmlns="http://www.w3.org/2000/svg">
<path d="M256.577 472.393C268.972 472.177 281.41 472.005 293.762 470.839C299.938 470.277 306.157 469.457 312.073 467.686C316.738 466.304 321.618 463.972 323.777 459.61C324.079 459.005 324.339 458.314 324.209 457.623C324.123 456.932 323.691 456.371 323.173 455.896C320.668 453.434 316.781 453.348 313.283 453.391C279.035 453.866 244.787 454.514 210.626 457.278C204.493 457.796 197.54 458.789 193.999 463.842C186.268 474.855 212.871 472.437 217.665 472.566C230.665 472.825 243.621 472.609 256.577 472.393Z" fill="url(#paint0_linear_98:626)"/>
<path d="M256.577 472.393C268.972 472.177 281.41 472.005 293.762 470.839C299.938 470.277 306.157 469.457 312.073 467.686C316.738 466.304 321.618 463.972 323.777 459.61C324.079 459.005 324.339 458.314 324.209 457.623C324.123 456.932 323.691 456.371 323.173 455.896C320.668 453.434 316.781 453.348 313.283 453.391C279.035 453.866 244.787 454.514 210.626 457.278C204.493 457.796 197.54 458.789 193.999 463.842C186.268 474.855 212.871 472.437 217.665 472.566C230.665 472.825 243.621 472.609 256.577 472.393Z" fill="url(#paint1_linear_98:626)"/>
<path d="M169.339 309.923C178.581 355.356 204.882 395.952 214.081 441.429C214.686 444.409 215.247 447.475 216.888 449.98C218.572 452.485 221.682 454.342 224.575 453.564C229.844 452.139 229.801 444.797 229.067 439.399C226.908 423.29 228.765 406.922 230.665 390.77C233.602 365.591 236.538 340.413 239.475 315.192C241.678 312.903 245.651 313.421 248.07 315.494C250.488 317.524 251.654 320.633 252.604 323.656C256.88 337.087 258.65 351.124 260.464 365.073C264.049 393.015 267.59 421.001 268.022 449.159C270.57 449.332 273.118 449.505 275.666 449.634C286.118 421.735 293.978 392.972 301.363 364.166C305.12 349.569 308.748 334.928 311.123 320.029C314.233 300.465 315.053 280.598 315.701 260.818C315.831 256.802 315.874 252.526 313.585 249.201C311.555 246.264 308.057 244.753 304.688 243.457C275.796 232.358 244.744 228.255 213.908 225.836C205.227 225.145 196.46 224.627 187.909 226.182C181.172 227.391 173.83 230.069 168.777 234.906C163.076 240.391 164.933 249.071 164.89 256.629C164.804 274.466 165.754 292.388 169.339 309.923Z" fill="#666666"/>
<path d="M151.07 209.079C148.22 217.717 145.974 227.952 151.243 235.381C153.748 238.879 157.548 241.168 161.392 243.111C182.986 253.994 207.689 256.542 231.744 258.875C253.424 260.991 275.191 263.107 296.958 261.941C307.323 261.38 318.249 259.868 326.325 253.347C334.012 247.171 338.029 237.281 339.109 227.477C340.188 217.674 338.72 207.784 337.208 198.023C335.567 187.313 333.926 176.602 331.119 166.151C326.239 147.969 317.731 130.78 306.329 115.838C297.692 104.566 287.197 94.3733 274.327 88.3271C262.148 82.5831 243.664 79.9486 231.01 86.1245C218.356 92.2571 206.739 109.921 198.274 120.804C177.673 147.278 161.564 177.25 151.07 209.079Z" fill="#F96F5D"/>
<path d="M271.693 56.8864C271.563 59.1753 271.434 61.5074 270.786 63.7532C269.188 69.0652 264.351 73.859 257.786 76.4071C251.222 78.9551 243.059 79.2574 236.322 77.0116C229.628 74.8091 224.705 70.4903 220.775 65.9556C212.569 56.4544 207.775 45.1393 208.898 33.9105C209.071 32.2262 209.416 30.4987 210.842 29.1599C212.871 27.2596 216.456 26.8277 219.695 26.5686C230.362 25.6185 259.946 18.8812 268.713 24.0206C277.393 29.1167 272.125 49.7604 271.693 56.8864Z" fill="#F2D6C9"/>
<path d="M185.491 24.6254C187.045 31.2331 195.467 36.2428 204.493 37.4088C213.519 38.5317 222.805 36.3723 230.665 32.9173C239.043 29.2032 246.903 23.8048 256.664 23.5024C258.478 23.4593 260.335 23.5888 261.89 24.1935C263.617 24.8845 264.869 26.1369 265.863 27.3893C271.434 34.2993 272.255 42.6778 272.946 50.6675C275.925 43.7143 278.301 36.6314 279.985 29.4191C281.842 21.559 282.36 12.36 274.587 6.87522C268.67 2.68602 259.557 1.95183 251.352 2.68602C239.821 3.72252 228.721 7.26393 219.782 12.7056C216.24 14.8649 213.001 17.3267 209.114 19.2269C205.27 21.084 200.606 22.3796 196.028 21.775C191.019 21.084 190.025 18.0176 186.527 16.2901C185.102 18.7086 184.886 21.9477 185.491 24.6254Z" fill="#D1B380"/>
<path d="M289.529 137.215C286.333 131.342 281.626 126.548 277.653 121.193C273.679 115.838 270.354 109.532 270.7 102.881C271.045 96.2305 276.271 89.4933 282.922 89.5365C285.686 89.5365 288.277 90.6593 290.739 91.9117C298.728 95.9282 306.027 101.413 312.03 108.064C314.362 110.655 316.522 113.419 318.033 116.572C320.236 121.193 320.84 126.419 321.402 131.515C322.352 140.498 323.129 149.61 321.186 158.421C318.379 170.988 309.396 182.217 297.519 187.27C294.971 188.35 291.084 190.207 288.665 188.825C286.074 187.356 285.599 183.987 286.161 181.439C287.629 174.443 292.423 168.656 293.503 161.228C294.582 153.065 293.502 144.514 289.529 137.215Z" fill="#F2D6C9"/>
<path d="M275.666 186.363C275.148 186.709 274.63 187.098 274.241 187.573C273.291 188.782 273.248 190.423 273.248 191.978C273.248 194.439 273.507 197.333 275.623 198.585C276.573 199.147 277.739 199.233 278.862 199.276C280.028 199.319 281.194 199.406 282.36 199.449C283.613 199.536 284.951 199.579 285.988 198.888C287.068 198.197 287.543 196.901 287.975 195.692C289.011 192.712 290.048 189.775 291.084 186.795C291.257 186.277 291.43 185.715 291.214 185.24C291.084 184.938 290.782 184.722 290.523 184.549C288.061 182.649 286.895 181.699 283.742 182.39C281.108 182.951 277.567 184.463 275.666 186.363Z" fill="#F2D6C9"/>
<path d="M298.944 451.664C297.389 450.238 295.1 450.023 293.027 449.893C289.918 449.677 286.809 449.418 283.699 449.202C282.36 449.115 280.935 448.986 279.855 448.209C279.423 447.906 279.078 447.474 278.776 447.042C277.782 447.042 276.832 446.999 275.839 446.999C272.254 446.913 268.67 448.252 265.171 449.331C265.906 452.398 266.597 455.421 267.331 458.487C267.46 459.092 267.633 459.74 268.108 460.128C268.583 460.517 269.274 460.56 269.922 460.56C280.287 460.819 290.695 460.431 301.017 459.437C301.104 456.63 301.017 453.477 298.944 451.664Z" fill="black"/>
<path d="M227.426 448.9C227.599 453.002 227.728 457.321 225.828 460.992C224.489 463.584 222.243 465.527 220.041 467.47C218.875 468.464 217.752 469.457 216.586 470.493C216.283 470.752 215.938 471.055 215.549 471.184C215.117 471.314 214.642 471.314 214.21 471.271C212.224 471.185 210.28 471.357 208.294 471.228C206.35 471.055 204.32 470.494 202.938 469.068C201.556 467.643 201.125 465.225 202.334 463.67C203.111 462.677 204.407 462.201 205.53 461.64C208.941 460.085 211.878 457.537 213.865 454.384C215.118 452.398 216.283 450.325 218.572 449.504C219.436 449.202 227.426 448.295 227.426 448.9Z" fill="black"/>
<path d="M297.174 177.769C296.699 176.775 296.181 175.782 295.36 175.091C294.28 174.227 292.812 174.184 291.473 174.141C267.418 173.363 243.319 172.543 219.264 171.765C217.32 171.679 215.549 172.932 214.729 174.832C210.842 183.988 206.221 191.675 203.284 201.219C202.895 202.515 203.802 203.811 205.098 203.854C237.575 204.286 271.736 207.784 304.17 205.063C306.373 204.89 307.711 202.386 306.761 200.269C303.522 192.927 300.37 184.333 297.174 177.769Z" fill="#7F7F7F"/>
<path d="M296.526 175.652C296.051 174.659 295.576 173.666 294.712 172.975C293.632 172.111 292.207 172.068 290.911 172.025C267.288 171.247 243.664 170.427 220.084 169.649C218.184 169.563 216.413 170.816 215.636 172.716C211.792 181.872 207.257 189.559 204.407 199.103C204.018 200.399 204.925 201.694 206.177 201.738C238.05 202.17 271.563 205.668 303.393 202.947C305.552 202.774 306.848 200.269 305.941 198.153C302.788 190.811 299.678 182.217 296.526 175.652Z" fill="#666666"/>
<path d="M292.768 177.596C292.336 176.905 291.905 176.17 291.127 175.695C290.177 175.091 288.882 175.047 287.672 175.004C266.381 174.443 245.089 173.838 223.798 173.277C222.07 173.234 220.516 174.097 219.782 175.479C216.327 182.044 212.224 187.572 209.676 194.439C209.33 195.346 210.151 196.296 211.273 196.339C240.036 196.641 270.268 199.189 298.944 197.203C300.888 197.073 302.097 195.259 301.233 193.748C298.426 188.479 295.619 182.303 292.768 177.596Z" fill="#F0F0F0"/>
<path d="M264.74 179.497C264.61 179.669 264.653 179.885 264.696 180.101C265.56 185.068 266.424 190.121 268.324 194.785C274.025 194.785 279.726 194.785 285.426 194.828C287.24 194.828 289.054 194.828 290.782 194.483C288.882 189.559 286.938 184.636 285.038 179.712C278.517 179.885 271.995 179.756 265.517 179.324C265.215 179.28 264.912 179.281 264.74 179.497Z" fill="#009FB7"/>
<path d="M257.571 178.978C247.076 179.539 236.668 179.366 226.173 178.978C225.353 178.934 225.353 180.187 226.173 180.273C236.625 181.051 247.119 180.921 257.571 180.403C258.478 180.36 258.521 178.934 257.571 178.978Z" fill="#CACACA"/>
<path d="M258.65 182.995C248.372 182.951 238.093 183.254 227.858 183.815C227.08 183.858 227.08 185.067 227.858 185.024C238.136 184.549 248.372 184.42 258.65 184.463C259.601 184.463 259.601 182.995 258.65 182.995Z" fill="#CACACA"/>
<path d="M258.65 188.047C247.854 187.572 237.013 187.486 226.216 187.529C225.396 187.529 225.396 188.781 226.216 188.781C237.057 188.954 247.854 189.299 258.65 189.559C259.601 189.559 259.601 188.09 258.65 188.047Z" fill="#CACACA"/>
<path d="M255.757 191.891C246.169 191.804 236.538 191.977 226.907 192.064C226.087 192.064 226.087 193.316 226.907 193.316C236.495 193.402 246.126 193.575 255.757 193.489C256.793 193.489 256.793 191.934 255.757 191.891Z" fill="#CACACA"/>
<path d="M216.024 186.578C217.795 186.751 219.609 186.924 221.379 186.578C222.848 186.319 224.273 185.714 225.482 184.851C227.383 183.512 228.808 181.352 228.937 179.02C229.024 176.688 227.555 174.27 225.309 173.622C224.273 173.32 223.193 173.406 222.114 173.622C217.363 174.442 213.044 177.163 208.25 177.509C206.48 177.638 204.493 177.509 203.241 178.718C202.55 179.409 202.204 180.359 202.031 181.353C201.859 182.389 201.815 183.555 202.334 184.462C203.327 186.233 206.22 185.671 207.948 185.801C210.626 186.06 213.303 186.319 216.024 186.578Z" fill="#F2D6C9"/>
<path d="M184.497 103.659C176.551 109.619 170.073 117.349 163.897 125.123C158.196 132.335 152.539 139.893 149.731 148.66C146.924 157.427 147.399 167.749 153.1 174.961C158.887 182.26 168.561 184.938 177.717 186.708C181.345 187.399 185.059 188.047 188.773 187.788C192.876 187.529 199.483 188.306 203.414 187.011C205.53 186.32 205.53 184.29 207.128 182.735C208.726 181.18 209.071 177.812 207.948 175.911C201.297 175.48 194.646 174.789 188.039 173.839C182.554 173.061 176.594 171.809 173.053 167.576C169.209 162.998 169.468 155.959 172.318 150.69C175.169 145.421 180.135 141.664 185.275 138.597C190.414 135.531 195.899 132.983 200.65 129.355C208.769 123.136 242.973 98.4329 233.256 87.9815C225.482 79.7759 191.191 98.6057 184.497 103.659Z" fill="#F2D6C9"/>
<path d="M322.568 120.459C322.957 117.997 321.272 115.708 319.717 113.765C316.306 109.532 312.894 105.257 309.439 101.024C307.798 98.9945 306.157 96.9214 304.127 95.2371C300.11 91.8684 294.928 90.2705 289.918 88.8022C284.174 87.1179 277.48 85.6927 272.643 89.1908C269.318 91.6093 267.806 95.8849 267.806 99.9877C267.806 104.091 269.145 108.021 270.613 111.864C272.773 117.565 275.105 123.482 278.171 128.751C280.719 133.199 283.569 132.853 287.888 130.91C299.16 125.857 310.303 121.927 322.568 120.459Z" fill="#F96F5D"/>
<path d="M190.457 115.406C194.171 121.323 198.749 126.635 203.327 131.904C203.673 132.335 204.104 132.767 204.666 132.767C205.098 132.767 205.486 132.508 205.788 132.249C209.373 129.485 211.792 125.555 214.901 122.273C221.077 115.795 229.974 111.994 234.854 104.523C237.618 100.247 238.827 94.9782 238.222 89.9253C238.006 88.1546 237.531 86.3407 236.409 85.0018C234.811 83.0584 232.176 82.281 229.671 82.281C226.087 82.281 222.632 83.5336 219.306 84.8292C209.848 88.5001 200.52 92.5597 191.364 96.9649C189.118 98.0446 186.829 99.1674 184.584 100.29C181.647 101.802 180.913 101.759 182.813 104.35C185.534 107.934 188.038 111.519 190.457 115.406Z" fill="#F96F5D"/>
<path d="M474.977 480.037C483.269 480.037 491.733 479.951 499.637 477.403C500.241 475.546 499.118 473.43 497.477 472.307C495.836 471.184 493.85 470.839 491.863 470.579C485.212 469.716 478.475 469.5 471.737 469.284C445.609 468.506 419.437 467.729 393.266 467.556C389.983 467.513 376.293 468.42 380.18 475.071C382.771 479.519 394.907 477.965 399.139 478.18C415.248 478.958 431.357 479.476 447.509 479.778C456.665 479.951 465.821 480.037 474.977 480.037Z" fill="url(#paint2_linear_98:626)"/>
<path d="M474.977 480.037C483.269 480.037 491.733 479.951 499.637 477.403C500.241 475.546 499.118 473.43 497.477 472.307C495.836 471.184 493.85 470.839 491.863 470.579C485.212 469.716 478.475 469.5 471.737 469.284C445.609 468.506 419.437 467.729 393.266 467.556C389.983 467.513 376.293 468.42 380.18 475.071C382.771 479.519 394.907 477.965 399.139 478.18C415.248 478.958 431.357 479.476 447.509 479.778C456.665 479.951 465.821 480.037 474.977 480.037Z" fill="url(#paint3_linear_98:626)"/>
<path d="M496.268 215.514C496.268 215.514 497.736 192.366 455.801 194.007C454.981 194.05 454.203 194.05 453.426 194.093C453.124 194.266 452.864 194.395 452.562 194.568C451.957 196.123 451.439 197.677 451.051 199.275C450.921 199.707 450.835 200.398 450.705 201.046C450.403 203.551 450.489 202.428 450.705 201.046C450.748 200.528 450.835 199.88 450.921 199.06C450.791 200.096 450.575 201.133 450.446 202.126C449.15 211.368 449.453 220.697 448.632 229.939C447.941 237.842 446.343 245.745 444.616 253.562C446.257 253.476 448.114 253.519 449.15 253.908C451.267 254.685 452.26 446.438 448.632 458.357L465.302 458.53C465.346 458.574 497.65 261.638 496.268 215.514Z" fill="#97A8B2"/>
<path d="M450.489 107.847C445.609 107.156 440.427 109.704 438.051 114.023C436.54 116.787 436.151 120.026 435.762 123.179C434.38 134.364 432.61 145.507 430.493 156.606C429.068 164.12 428.895 179.063 418.271 179.797C414.298 180.1 410.195 177.077 406.265 176.472C399.83 175.436 393.784 175.09 387.565 172.844C382.555 171.03 379.23 168.353 375.473 164.725C373.227 162.523 370.074 158.161 367.051 157.34C364.892 156.736 362.171 159.24 363.509 161.011C360.832 159.413 356.988 161.961 356.859 165.114C356.6 171.117 368.433 174.529 372.622 177.12C379.1 181.18 385.492 185.455 392.532 188.478C403.631 193.229 415.637 195.907 427.686 196.123C429.802 196.166 432.048 196.079 433.862 195C437.749 192.624 439.822 187.053 442.802 183.598C445.523 180.402 446.991 178.286 448.243 174.14C451.698 162.738 454.678 151.035 456.924 139.331C459.04 129.484 466.339 110.179 450.489 107.847Z" fill="#EADDD0"/>
<path d="M401.601 284.356C401.86 291.741 402.378 299.126 402.853 306.511C403.587 317.567 404.322 328.623 405.013 339.679C405.229 343.22 405.574 346.978 407.733 349.785C407.949 350.087 408.209 350.346 408.554 350.476C409.72 350.908 410.627 349.439 411.016 348.273C415.637 334.367 422.46 321.238 431.227 309.491C433.473 306.511 435.892 303.531 439.131 301.674C441.549 300.292 444.313 299.558 447.078 298.867C452.519 297.485 458.004 296.103 463.445 294.721C466.641 293.9 469.967 293.037 472.472 290.92C474.458 289.236 475.754 286.904 477.006 284.615C483.398 273.084 489.833 261.423 493.072 248.64C495.447 239.311 496.052 229.637 495.879 220.049C495.879 219.099 495.836 218.106 495.491 217.242C495.016 216.033 493.979 215.083 492.899 214.349C488.797 211.628 483.571 211.283 478.648 211.067C459.947 210.246 440.815 209.857 422.504 214.219C416.846 215.558 407.258 216.94 404.494 222.943C401.126 230.285 402.162 241.687 401.774 249.633C401.212 261.164 401.126 272.781 401.601 284.356Z" fill="#97A8B2"/>
<path d="M439.822 271.529C429.371 270.104 418.876 268.721 408.425 267.296C407.907 265.957 410.498 267.34 410.325 268.722C404.84 312.471 406.956 356.91 411.318 400.919C413.219 419.878 413.348 438.924 411.362 457.84C415.68 458.315 423.109 458.963 427.384 459.438C435.331 400.487 440.124 341.363 448.071 282.412C448.46 279.432 448.719 275.977 446.43 273.818C444.745 272.22 442.197 271.831 439.822 271.529Z" fill="#97A8B2"/>
<path d="M426.218 78.4797C432.48 78.2637 438.872 74.0313 445.609 72.6493C443.838 67.2077 445.955 61.3342 446.516 55.6334C447.294 47.9029 445.134 40.2155 442.888 32.8304C441.074 26.8705 439.045 20.6947 434.769 16.1168C433.905 15.2099 432.912 14.3461 431.746 14.0438C430.709 13.7847 429.63 13.9575 428.593 14.087C421.208 15.2099 400.694 16.0737 398.751 24.3657C396.073 35.724 403.89 50.7964 408.295 60.8591C410.368 65.6097 412.484 70.4468 416.112 74.1177C419.394 77.5295 422.806 78.6092 426.218 78.4797Z" fill="#EADDD0"/>
<path d="M497.823 241.038L497.952 240.908C498.039 240.822 498.082 240.736 498.168 240.692C498.341 240.433 498.514 240.218 498.686 239.958C500.889 236.59 502.789 233.048 504.733 229.55C508.361 188.695 503.739 147.451 490.913 107.286C486.896 94.6753 482.923 80.769 467.851 72.1315C467.073 71.6996 466.253 71.2677 465.303 71.0949C464.05 70.879 462.755 71.2245 461.545 71.5268C453.426 73.5998 445.307 75.6729 437.144 77.7891C435.546 78.2209 433.905 78.6096 432.264 78.9983C430.537 79.387 428.809 79.7324 427.038 79.9915C424.015 80.4234 412.139 83.2738 411.707 86.1242C410.67 93.4229 409.72 100.722 408.9 108.063C406.827 126.159 405.272 144.211 405.315 162.35C405.358 180.446 403.717 198.498 400.737 216.421C400.521 217.803 399.442 225.102 398.146 232.573C398.232 232.703 398.276 232.832 398.362 232.962C399.398 234.948 400.521 236.849 401.774 238.706C401.903 238.879 402.119 239.181 402.335 239.526C402.465 239.656 402.551 239.786 402.637 239.872C404.019 241.47 405.574 242.981 407.172 244.407C407.302 244.536 407.518 244.709 407.777 244.968C405.574 242.895 407.906 245.011 408.554 245.443C410.238 246.566 411.966 247.602 413.737 248.509C414.169 248.725 415.982 249.503 416.155 249.589C416.328 249.675 416.544 249.719 416.717 249.805C442.197 248.725 467.635 246.955 492.899 244.407C494.454 243.154 496.139 241.902 497.823 241.038Z" fill="#E8E8E8"/>
<path d="M412.484 456.198C412.225 456.198 411.966 456.198 411.707 456.241C411.362 456.328 411.145 456.544 410.929 456.716C410.022 457.623 409.332 458.616 408.943 459.696C408.597 460.689 408.511 461.769 407.777 462.633C406.956 463.626 405.445 464.231 403.933 464.706C400.089 465.959 395.944 466.822 391.754 467.211C390.804 467.297 389.854 467.384 388.99 467.643C386.572 468.463 385.967 470.579 385.665 472.437C385.578 472.955 385.535 473.603 386.183 473.905C386.529 474.078 386.961 474.078 387.392 474.078C399.485 474.035 404.624 474.034 416.673 474.034C419.61 474.034 422.676 473.948 425.527 473.43C425.916 473.344 426.304 473.3 426.607 473.084C426.909 472.869 427.038 472.566 427.168 472.264C428.766 468.118 428.939 463.583 428.593 459.308C428.464 457.969 428.248 456.889 426.132 456.587C423.108 456.155 426.434 456.501 423.367 456.414C419.783 456.371 416.112 456.284 412.484 456.198Z" fill="#97A8B2"/>
<path d="M464.698 35.8108C464.741 32.0967 462.582 28.728 460.768 25.4889C457.745 20.0905 455.326 14.2601 451.612 9.29357C447.898 4.327 442.413 0.181025 436.194 0.0082743C433.603 -0.0781008 431.055 0.526567 428.55 1.13119C417.839 3.72245 407.043 6.35682 397.282 11.4529C396.073 12.1008 394.821 12.7918 394.043 13.9579C393.352 14.9512 393.136 16.2036 392.92 17.4129C392.618 19.0972 392.316 20.8246 392.013 22.509C391.841 23.5886 391.625 24.6684 391.841 25.7049C392.488 28.944 396.289 30.3691 399.614 30.585C402.896 30.7578 406.136 30.326 409.375 29.8509C412.484 29.419 419.826 26.8278 422.331 29.635C423.583 31.017 423.195 33.3491 424.059 34.9902C425.095 37.02 427.038 38.2292 428.334 40.0431C429.673 41.7274 430.623 44.0596 429.63 45.9599C431.444 44.8802 433.689 44.5346 435.762 45.0529C436.496 45.2256 437.231 45.528 437.706 46.0895C438.613 47.2123 438.224 48.9398 437.231 49.9763C436.237 51.0128 434.812 51.4878 433.43 51.9197C439.304 57.5772 441.463 66.7762 438.742 74.5068C443.234 74.0317 446.991 70.9222 450.1 67.64C452.908 64.6601 455.499 61.421 457.27 57.75C458.09 56.0225 458.738 54.2518 459.386 52.4811C460.638 48.9397 461.934 45.3552 463.186 41.8138C463.964 39.8272 464.655 37.8406 464.698 35.8108Z" fill="#333333"/>
<path d="M450.014 456.587C449.755 456.587 449.496 456.587 449.237 456.63C448.892 456.717 448.675 456.933 448.459 457.105C447.553 458.012 446.862 459.006 446.473 460.085C446.127 461.079 446.041 462.158 445.307 463.022C444.486 464.015 442.975 464.62 441.463 465.095C437.619 466.347 433.473 467.211 429.284 467.6C428.334 467.686 427.384 467.773 426.52 468.032C424.102 468.853 423.497 470.969 423.195 472.826C423.108 473.344 423.065 473.992 423.713 474.294C424.059 474.467 424.491 474.467 424.922 474.467C437.015 474.424 442.154 474.424 454.203 474.424C457.14 474.424 460.206 474.337 463.057 473.819C463.446 473.733 463.834 473.689 464.137 473.473C464.439 473.257 464.568 472.955 464.698 472.653C466.296 468.507 466.469 463.972 466.123 459.697C465.994 458.358 465.778 457.278 463.662 456.976C460.638 456.544 463.964 456.889 460.897 456.803C457.27 456.76 453.642 456.674 450.014 456.587Z" fill="#97A8B2"/>
<path d="M365.928 168.613C364.676 171.118 363.251 173.58 361.696 175.912C361.48 176.257 361.221 176.603 360.832 176.689C360.443 176.819 360.011 176.603 359.666 176.43C355.477 174.357 351.331 172.284 347.142 170.254C348.135 160.407 347.574 148.488 350.424 139.116C350.813 137.777 371.37 141.362 372.752 145.119C374.091 148.833 370.29 157.773 369.038 161.358C368.174 163.819 367.137 166.238 365.928 168.613Z" fill="#C7B299"/>
<path d="M349.085 140.152C349.69 140.282 350.294 140.325 350.899 140.368C352.195 140.498 353.447 140.757 354.699 141.016C360.875 142.441 366.878 144.514 372.795 146.76C373.184 146.89 373.572 147.062 374.004 147.019C374.652 146.933 375.127 146.328 375.3 145.723C375.472 145.076 375.386 144.428 375.3 143.78C375.3 143.651 375.257 143.521 375.17 143.435C375.084 143.348 374.997 143.305 374.868 143.262C374.566 143.132 374.263 143.003 373.961 142.916C372.579 142.398 371.154 141.966 369.729 141.578C363.553 139.85 357.334 138.252 351.115 136.784C350.812 136.697 350.424 136.654 350.165 136.827C349.69 137.172 349.431 138.036 349.301 138.554C349.085 138.986 348.394 140.023 349.085 140.152Z" fill="#534741"/>
<path d="M348.783 157.773L367.267 165.805L370.981 156.045L348.783 147.019V157.773Z" fill="#009FB7"/>
<path d="M418.142 47.083C418.055 46.6943 417.58 46.3057 417.105 46.3489C412.484 46.8239 407.949 47.8604 403.501 48.9833C401.946 49.3719 402.637 51.661 404.149 51.2291C408.165 50.1926 412.268 49.4152 416.285 48.5083C416.803 50.5813 417.235 52.6975 417.494 54.8568C417.623 55.807 417.667 56.7571 417.667 57.7072C417.71 59.4347 415.118 59.5642 413.996 59.7801C412.614 60.0393 411.232 60.1256 409.85 60.1688C407.82 60.2552 407.69 59.3483 406.913 58.0094C405.747 55.9796 404.84 53.8635 404.019 51.7041C403.76 51.0131 402.68 51.3154 402.853 52.0064C403.76 55.1159 404.926 58.2687 406.654 61.0758C407.906 63.1057 412.57 61.8532 414.471 61.5941C416.587 61.2918 419.308 60.8166 419.567 58.3981C420.042 54.7272 419.092 50.6676 418.142 47.083Z" fill="#333333"/>
<path d="M429.198 43.0229C425.225 44.5344 421.424 46.8234 417.624 48.7237C416.889 49.0692 417.408 50.2784 418.185 50.0192C422.201 48.6804 426.52 47.5576 430.364 45.7869C431.918 45.0959 430.796 42.4183 429.198 43.0229Z" fill="#333333"/>
<path d="M463.575 108.15C462.02 102.19 455.542 89.7519 448.718 98.6917C446.645 101.413 446.127 105.04 445.739 108.452C442.413 135.963 439.045 163.43 435.719 190.94C433.992 205.279 432.092 220.092 424.663 232.443C423.454 234.43 422.115 236.374 421.554 238.619C420.949 240.865 421.295 243.5 423.065 245.011C420.647 248.034 422.633 254.599 427.082 254.253C428.032 254.167 428.896 253.778 429.673 253.217C434.121 250.15 432.998 244.45 434.035 239.699C435.417 233.221 437.403 226.916 439.39 220.653C446.991 196.425 456.536 172.802 461.632 148.055C464.309 134.84 466.987 121.149 463.575 108.15Z" fill="#EADDD0"/>
<path d="M446.3 93.2939C444.572 93.6826 442.802 94.1144 441.506 95.2805C439.822 96.7921 439.26 99.1674 438.785 101.37C433.603 126.246 429.673 151.381 426.995 176.689C435.546 178.848 444.141 181.008 452.692 183.167C463.575 159.5 468.455 133.113 466.728 107.157C466.425 102.536 465.648 97.3967 462.063 94.4599C457.745 91.0481 451.612 92.0847 446.3 93.2939Z" fill="#009FB7"/>
<path d="M92.4213 476.368C101.102 476.109 109.783 475.806 118.42 475.159C122.61 474.856 126.928 474.424 130.729 472.611C132.802 471.617 134.918 469.415 133.968 467.342C133.191 465.614 130.858 465.355 128.915 465.355C97.6039 465.312 66.2497 465.269 34.9819 467.342C29.3244 467.73 22.8895 468.594 19.6504 473.258C15.6772 479.045 27.5538 477.404 30.0155 477.448C36.8824 477.534 43.7492 477.534 50.5728 477.448C64.5656 477.275 78.4718 476.843 92.4213 476.368Z" fill="url(#paint4_linear_98:626)"/>
<path d="M92.4213 476.368C101.102 476.109 109.783 475.806 118.42 475.159C122.61 474.856 126.928 474.424 130.729 472.611C132.802 471.617 134.918 469.415 133.968 467.342C133.191 465.614 130.858 465.355 128.915 465.355C97.6039 465.312 66.2497 465.269 34.9819 467.342C29.3244 467.73 22.8895 468.594 19.6504 473.258C15.6772 479.045 27.5538 477.404 30.0155 477.448C36.8824 477.534 43.7492 477.534 50.5728 477.448C64.5656 477.275 78.4718 476.843 92.4213 476.368Z" fill="url(#paint5_linear_98:626)"/>
<path d="M155.821 165.114C156.641 165.848 157.462 166.539 158.498 166.842C159.923 167.23 161.435 166.755 162.817 166.28C163.767 165.978 164.674 165.632 165.624 165.33C165.97 165.201 166.358 165.071 166.574 164.725C166.79 164.38 166.747 163.991 166.704 163.56C165.797 154.836 164.156 146.198 161.737 137.776C157.894 139.547 154.093 141.318 150.249 143.089C148.176 144.039 141.223 145.939 141.094 148.444C140.964 150.992 145.887 155.138 147.485 156.865C150.12 159.759 152.884 162.523 155.821 165.114Z" fill="white"/>
<path d="M157.591 136.179C158.714 135.704 159.924 135.229 161.176 135.401C162.385 135.574 163.594 136.654 163.422 137.863C163.292 138.727 158.714 140.8 157.894 141.275C155.907 142.441 153.877 143.52 151.804 144.557C149.731 145.593 147.615 146.544 145.499 147.451C144.333 147.969 141.785 149.567 140.403 149.092C135.35 147.321 144.16 142.484 145.672 141.62C149.515 139.547 153.532 137.863 157.591 136.179Z" fill="#333333"/>
<path d="M113.022 461.468C111.165 461.597 109.264 461.727 107.451 461.252C105.637 460.777 103.909 459.524 103.348 457.754C102.873 456.242 103.089 454.256 101.793 453.392C101.491 453.176 101.145 453.089 100.757 453.046C100.584 421.39 101.361 403.121 101.145 370.817C102.743 360.064 101.793 350.087 101.534 339.679C100.757 306.813 100.022 273.947 99.2449 241.082C99.1585 236.72 98.9857 232.185 96.8264 228.125C93.3282 221.561 85.5545 217.847 78.2558 214.996C56.5756 206.532 32.045 194.439 26.0851 221.647C24.4872 228.86 23.1916 236.115 22.112 243.457C21.3346 248.683 20.7299 254.124 22.6302 259.307C25.8693 268.117 31.8724 289.754 39.4734 296.146C59.2965 312.816 67.9339 331.646 74.4552 353.758C72.4254 361.143 74.8007 371.595 75.7076 377.295C79.94 404.633 88.6641 430.07 92.9397 457.408C91.1258 460.777 90.3482 464.707 90.8665 468.507C90.9528 469.285 91.1256 470.062 91.6438 470.624C92.378 471.444 93.5873 471.617 94.667 471.703C97.7333 471.919 100.8 472.006 103.866 471.962C106.241 471.919 108.789 471.703 110.603 470.149C112.979 468.162 113.108 464.621 113.022 461.468Z" fill="#009FB7"/>
<path d="M87.1956 274.509C81.1061 261.078 58.8214 252.052 37.789 267.383C25.2214 276.539 34.7659 286.732 37.5299 295.801C40.8985 306.814 43.1442 318.172 44.1807 329.703C46.2105 351.945 43.9217 375.007 37.2708 398.112C32.8657 413.487 32.7793 430.33 29.713 445.661C28.0287 454.256 22.6733 465.658 23.9257 474.209C28.6764 474.252 33.4272 474.295 38.1346 474.338C42.3238 474.381 46.7721 474.338 50.2703 472.049C53.7685 469.76 55.4958 464.319 52.5591 461.339C49.6655 462.289 46.5992 463.239 43.6192 462.548C30.5334 459.438 47.6357 429.855 50.1406 423.334C60.8079 395.521 71.4752 367.708 79.2057 339.895C84.9065 319.554 95.574 292.864 87.1956 274.509Z" fill="#009FB7"/>
<path d="M91.2122 126.246C96.3947 138.987 101.577 151.684 106.76 164.424C108.185 167.922 109.61 171.637 108.919 175.307C107.71 181.829 100.584 185.327 94.1489 186.796C81.4086 168.7 67.9773 151.079 53.9413 133.977C45.9516 124.26 33.5137 101.802 51.8684 95.0218C72.6848 87.3776 85.0364 111.044 91.2122 126.246Z" fill="#ACB18F"/>
<path d="M137.898 106.897C139.582 104.393 142.001 105.515 144.117 107.675C138.2 129.096 132.931 150.69 128.31 172.413C126.885 179.15 125.071 186.578 119.327 190.465C116.909 192.106 113.972 192.927 111.078 193.402C105.853 194.309 99.5473 193.834 96.6105 189.429C92.4213 183.123 97.6038 176.991 101.75 172.586C106.63 167.446 108.703 164.121 111.726 157.124C118.679 140.972 128.094 121.581 137.898 106.897Z" fill="#424D76"/>
<path d="M147.788 105.905C148.263 105.3 148.522 104.566 148.824 103.832C149.558 101.975 150.292 100.074 151.027 98.2173C151.372 97.3536 151.718 96.4899 151.761 95.583C151.804 94.676 151.545 93.6826 150.854 93.078C150.206 92.5166 149.299 92.387 148.435 92.5598C147.572 92.7325 146.881 93.2077 146.19 93.7259C144.678 94.892 143.426 96.4035 142.562 98.131C141.871 99.513 141.439 101.025 140.359 102.104C139.884 102.579 139.323 102.968 138.891 103.529C138.243 104.35 138.114 105.516 138.502 106.466C139.928 109.619 146.146 108.064 147.788 105.905Z" fill="#F2D6C9"/>
<path d="M114.058 279.001C111.899 232.79 107.105 186.709 100.843 140.801C98.5539 123.958 95.7899 103.918 78.1694 96.0583C61.8445 88.7596 41.7192 86.9026 31.0951 103.314C25.1352 112.513 23.7962 123.655 22.5438 134.452C15.0291 200.486 7.51463 266.52 0 332.553C8.24882 333.029 106.976 347.669 107.407 341.493C107.407 341.407 107.407 341.32 107.407 341.277C108.055 341.234 108.66 341.105 109.221 340.845C111.424 339.852 112.072 337.218 112.46 334.929C115.354 316.444 114.922 297.658 114.058 279.001Z" fill="#EBEFEB"/>
<path d="M144.463 157.902C144.679 157.427 144.851 156.909 145.154 156.477C145.801 155.57 146.924 155.225 148.047 155.095C149.127 154.966 150.25 155.052 151.329 154.879C154.698 154.275 157.462 150.949 160.831 151.467C161.867 151.64 162.817 152.158 163.681 152.763C164.804 153.583 165.84 154.663 166.143 156.002C166.575 158.118 165.063 160.148 163.681 161.789C162.904 162.696 162.083 163.646 161.047 164.208C160.183 164.683 159.19 164.855 158.196 165.071C155.821 165.633 153.445 166.497 151.545 168.138C149.99 169.477 148.695 171.334 146.751 171.809C143.21 172.672 139.885 168.785 139.496 165.59C139.021 162.307 143.253 160.623 144.463 157.902Z" fill="#F2D6C9"/>
<path d="M146.838 169.26C145.283 166.151 143.728 163.042 142.217 159.932C137.336 160.753 133.666 164.64 130.167 168.095C125.33 172.888 120.105 177.293 114.534 181.267C111.251 183.599 107.494 185.845 103.521 185.24C98.6835 184.506 95.5741 179.798 93.0692 175.566C83.7407 159.63 74.4123 143.65 65.0838 127.714C57.6987 115.103 49.4497 119.724 44.1376 131.04C39.3438 141.361 45.5198 152.979 50.2705 162.307C56.4031 174.357 63.1834 186.06 70.6116 197.419C74.9736 204.07 80.1994 211.066 87.9731 212.837C91.6872 213.701 95.6605 213.226 99.3315 212.146C111.208 208.777 120.623 199.924 129.39 191.2C135.048 185.542 140.662 179.755 146.147 173.925C146.751 173.277 147.399 172.586 147.529 171.679C147.615 170.902 147.226 170.038 146.838 169.26Z" fill="#424D76"/>
<path d="M93.933 32.4858C91.9896 26.6987 88.9233 19.5727 82.6611 18.0612C75.8807 16.4632 66.2931 20.9116 61.3697 25.2303C55.2803 30.5424 51.4796 38.0571 49.3634 45.8309C47.0313 54.2956 46.6426 63.7104 50.4431 71.6569C54.2436 79.6035 62.9244 85.5634 71.6051 84.2678C77.4354 83.404 82.402 79.5603 86.2025 75.0688C95.9629 63.5377 98.7268 46.7377 93.933 32.4858Z" fill="#F2D6C9"/>
<path d="M64.7811 54.2092C62.8377 50.7974 56.9641 50.9703 55.2366 54.4685C53.941 57.0597 58.6052 67.5974 59.2962 70.8365C61.1101 79.4308 51.8681 138.08 54.2434 146.587C40.3802 146.89 26.3874 145.378 13.172 141.146C11.8332 140.714 10.408 140.196 9.45791 139.116C8.24865 137.691 8.20538 135.618 8.29176 133.761C9.32826 105.948 34.9816 11.2808 69.4884 12.1014C73.7208 12.1877 77.9102 13.1379 82.0562 14.1312C84.777 14.779 87.4979 15.5133 89.9596 16.8953C94.9693 19.7888 98.0787 25.2736 99.3312 30.9312C100.627 36.5888 100.281 42.4623 99.9788 48.2062C99.8925 49.9769 79.2058 48.163 77.2192 47.8607C74.9734 47.5152 70.7842 45.7445 68.5384 46.6946C65.9472 47.7743 65.6449 51.8771 64.7811 54.2092Z" fill="#534741"/>
<path opacity="0.19" d="M34.6364 236.201C28.6765 235.035 23.2347 232.142 17.9226 229.248C18.7864 226.657 19.6502 224.066 20.4708 221.474C44.8286 230.241 72.5118 229.464 96.3513 219.358C96.74 223.461 97.0856 227.564 97.4743 231.667C90.9961 233.049 84.3885 233.567 77.824 234.128C68.841 234.863 59.901 235.597 50.918 236.374C45.5195 236.806 39.9917 237.238 34.6364 236.201Z" fill="white"/>
<defs>
<linearGradient id="paint0_linear_98:626" x1="192.681" y1="463.056" x2="324.294" y2="463.056" gradientUnits="userSpaceOnUse">
<stop stop-color="#4D4D4D"/>
<stop offset="1"/>
</linearGradient>
<linearGradient id="paint1_linear_98:626" x1="192.681" y1="463.056" x2="324.294" y2="463.056" gradientUnits="userSpaceOnUse">
<stop/>
<stop offset="1"/>
</linearGradient>
<linearGradient id="paint2_linear_98:626" x1="379.561" y1="473.805" x2="499.822" y2="473.805" gradientUnits="userSpaceOnUse">
<stop stop-color="#4D4D4D"/>
<stop offset="1"/>
</linearGradient>
<linearGradient id="paint3_linear_98:626" x1="379.561" y1="473.805" x2="499.822" y2="473.805" gradientUnits="userSpaceOnUse">
<stop/>
<stop offset="1"/>
</linearGradient>
<linearGradient id="paint4_linear_98:626" x1="18.8726" y1="471.505" x2="134.186" y2="471.505" gradientUnits="userSpaceOnUse">
<stop stop-color="#4D4D4D"/>
<stop offset="1"/>
</linearGradient>
<linearGradient id="paint5_linear_98:626" x1="18.8726" y1="471.505" x2="134.186" y2="471.505" gradientUnits="userSpaceOnUse">
<stop/>
<stop offset="1"/>
</linearGradient>
</defs>
</svg>
