<svg width="723" height="508" viewBox="0 0 723 508" fill="none" xmlns="http://www.w3.org/2000/svg">
<path d="M127.966 448.981L673.564 448.981C686.962 448.981 697.824 438.119 697.824 424.721V25.2599C697.824 11.8615 686.962 0.999969 673.564 0.999969L127.966 0.999969C114.567 0.999969 103.706 11.8615 103.706 25.2599V424.721C103.706 438.119 114.567 448.981 127.966 448.981Z" fill="white"/>
<g opacity="0.14">
<path opacity="0.14" d="M283.031 83.856C279.37 72.7368 272.555 62.9215 263.417 55.6046C254.279 48.2877 243.212 43.7847 231.561 42.6436C219.91 41.5025 208.179 43.7725 197.795 49.1773C187.411 54.5822 178.822 62.8888 173.073 73.0864C167.324 83.284 164.663 94.9327 165.414 106.615C166.165 118.297 170.296 129.509 177.303 138.887C184.311 148.264 193.893 155.403 204.883 159.434C215.874 163.464 227.799 164.214 239.208 161.59C236.578 153.614 235.641 145.176 236.458 136.817C237.275 128.458 239.827 120.361 243.952 113.045C248.076 105.728 253.683 99.3533 260.412 94.3272C267.141 89.3012 274.845 85.7347 283.031 83.856Z" fill="#F96F5D"/>
<path opacity="0.14" d="M296.538 82.3201C291.992 82.3228 287.461 82.8381 283.031 83.8561C285.661 91.8325 286.598 100.27 285.782 108.629C284.965 116.989 282.413 125.086 278.288 132.402C274.163 139.719 268.557 146.094 261.828 151.12C255.098 156.146 247.394 159.712 239.208 161.59C242.691 172.152 249.024 181.547 257.508 188.738C265.992 195.928 276.299 200.635 287.289 202.339C298.279 204.043 309.527 202.678 319.79 198.394C330.054 194.11 338.934 187.074 345.452 178.062C351.969 169.05 355.87 158.413 356.725 147.324C357.58 136.235 355.354 125.126 350.294 115.222C345.234 105.318 337.537 97.0045 328.051 91.1986C318.565 85.3926 307.659 82.3201 296.538 82.3201Z" fill="#F96F5D"/>
</g>
<g opacity="0.22">
<path opacity="0.22" d="M225.702 164.125C213.565 164.125 201.7 160.526 191.608 153.783C181.517 147.041 173.651 137.457 169.006 126.243C164.361 115.03 163.146 102.691 165.514 90.7874C167.882 78.8835 173.726 67.949 182.308 59.3668C190.891 50.7845 201.825 44.94 213.729 42.5722C225.633 40.2044 237.972 41.4197 249.185 46.0645C260.398 50.7093 269.982 58.5749 276.725 68.6666C283.468 78.7583 287.067 90.623 287.067 102.76C287.048 119.029 280.577 134.627 269.073 146.132C257.569 157.636 241.971 164.107 225.702 164.125ZM225.702 43.3941C213.96 43.3939 202.482 46.8755 192.719 53.3986C182.957 59.9217 175.347 69.1933 170.854 80.041C166.361 90.8887 165.185 102.825 167.475 114.341C169.766 125.857 175.42 136.435 183.722 144.738C192.025 153.04 202.603 158.695 214.119 160.985C225.635 163.276 237.571 162.1 248.419 157.607C259.267 153.114 268.538 145.505 275.062 135.742C281.585 125.979 285.067 114.502 285.067 102.76C285.049 87.021 278.788 71.9316 267.659 60.8022C256.53 49.6729 241.441 43.4124 225.702 43.3941Z" fill="#F96F5D"/>
<path opacity="0.22" d="M296.537 204.052C284.4 204.052 272.535 200.453 262.443 193.71C252.352 186.967 244.486 177.383 239.841 166.17C235.196 154.957 233.981 142.618 236.349 130.715C238.716 118.811 244.561 107.876 253.143 99.2939C261.725 90.7116 272.66 84.867 284.563 82.4991C296.467 80.1312 308.806 81.3463 320.019 85.991C331.232 90.6356 340.817 98.501 347.56 108.593C354.303 118.684 357.902 130.549 357.902 142.686C357.884 158.955 351.413 174.554 339.909 186.058C328.404 197.562 312.806 204.034 296.537 204.052ZM296.537 83.3198C284.795 83.3197 273.317 86.8012 263.554 93.3243C253.792 99.8474 246.182 109.119 241.689 119.967C237.196 130.814 236.02 142.751 238.31 154.267C240.601 165.783 246.255 176.361 254.557 184.664C262.86 192.966 273.438 198.62 284.954 200.911C296.47 203.202 308.406 202.026 319.254 197.533C330.102 193.04 339.373 185.431 345.897 175.668C352.42 165.905 355.902 154.427 355.902 142.686C355.884 126.947 349.624 111.857 338.495 100.727C327.366 89.5979 312.276 83.3376 296.537 83.3198Z" fill="#F96F5D"/>
</g>
<path d="M721.208 507.854H27.1567C26.8915 507.854 26.6372 507.749 26.4496 507.561C26.2621 507.374 26.1567 507.119 26.1567 506.854C26.1567 506.589 26.2621 506.334 26.4496 506.147C26.6372 505.959 26.8915 505.854 27.1567 505.854H721.208C721.473 505.854 721.727 505.959 721.915 506.147C722.102 506.334 722.208 506.589 722.208 506.854C722.208 507.119 722.102 507.374 721.915 507.561C721.727 507.749 721.473 507.854 721.208 507.854Z" fill="#292A2E"/>
<path d="M386.102 228.4L385.102 210.733C385.145 209.477 384.709 208.252 383.883 207.305C383.057 206.358 381.902 205.76 380.652 205.633C380.005 205.589 379.355 205.678 378.744 205.894C378.132 206.109 377.571 206.448 377.094 206.887C376.617 207.327 376.235 207.86 375.971 208.452C375.707 209.044 375.566 209.684 375.558 210.333L374.758 259.661" fill="#E98862"/>
<path d="M410.772 193.228L413.141 201.831L368.076 214.85L365.707 206.246L410.772 193.228Z" fill="#009FB7"/>
<path opacity="0.5" d="M410.772 193.228L413.141 201.831L368.076 214.85L365.707 206.246L410.772 193.228Z" fill="white"/>
<path d="M358.581 208.231L360.95 216.835L368.076 214.85L365.707 206.246L358.581 208.231Z" fill="#262626"/>
<path d="M410.772 193.228C410.772 193.228 413.401 193.867 415.754 194.447C417.62 194.907 419.312 195.33 419.38 195.367C418.57 196.352 417.702 197.287 416.78 198.167C415.069 199.914 413.145 201.835 413.145 201.835L410.772 193.228Z" fill="#F96F5D"/>
<path opacity="0.9" d="M410.772 193.228C410.772 193.228 413.401 193.867 415.754 194.447C417.62 194.907 419.312 195.33 419.38 195.367C418.57 196.352 417.702 197.287 416.78 198.167C415.069 199.914 413.145 201.835 413.145 201.835L410.772 193.228Z" fill="white"/>
<path d="M415.754 194.447C417.62 194.907 419.312 195.33 419.38 195.367C418.57 196.351 417.702 197.287 416.78 198.167L415.754 194.447Z" fill="#009FB7"/>
<path d="M374.754 259.659L390.16 260.305C394.945 260.506 399.681 259.272 403.761 256.764C407.841 254.255 411.079 250.585 413.06 246.224L421.995 226.455C422.479 225.437 422.596 224.283 422.327 223.188C422.058 222.093 421.419 221.125 420.518 220.447C419.692 219.852 418.697 219.537 417.679 219.548C416.661 219.559 415.673 219.894 414.86 220.506C414.821 220.438 414.765 220.382 414.698 220.342C414.633 220.309 414.561 220.292 414.488 220.294C414.415 220.296 414.343 220.315 414.28 220.351L415.935 216.707C416.477 215.574 416.569 214.278 416.192 213.08C415.815 211.882 414.998 210.872 413.905 210.253C412.908 209.735 411.761 209.585 410.665 209.829C409.569 210.073 408.593 210.695 407.911 211.587C407.892 211.54 407.866 211.497 407.832 211.459L408.512 209.959C408.996 208.941 409.113 207.786 408.844 206.691C408.575 205.596 407.936 204.628 407.035 203.95C406.032 203.228 404.789 202.923 403.566 203.097C402.343 203.272 401.235 203.914 400.475 204.888C400.444 204.876 400.412 204.867 400.38 204.862L385.372 215.809" fill="#E98862"/>
<path d="M408.579 194.6C408.303 195.727 407.641 196.721 406.71 197.412C404.158 199.645 401.91 202.203 400.024 205.02C397.144 209.032 394.798 215.52 394.137 217.685C393.788 218.826 393 219.782 391.946 220.343C390.892 220.903 389.659 221.022 388.518 220.673C387.376 220.324 386.42 219.536 385.86 218.482C385.3 217.429 385.181 216.195 385.53 215.054C385.645 214.678 388.389 205.794 392.713 199.771C394.745 196.942 399.734 191.278 401.633 189.98C402.373 189.475 403.247 189.202 404.143 189.196C405.039 189.191 405.917 189.453 406.663 189.949C407.409 190.446 407.99 191.153 408.331 191.982C408.673 192.811 408.759 193.722 408.579 194.6Z" fill="#E98862"/>
<path opacity="0.2" d="M400.762 205.358C400.755 205.41 400.739 205.46 400.716 205.507L395.455 215.832C395.428 215.885 395.391 215.931 395.346 215.97C395.301 216.008 395.249 216.037 395.193 216.055C395.137 216.073 395.078 216.08 395.019 216.076C394.961 216.071 394.903 216.055 394.851 216.028C394.798 216.001 394.751 215.964 394.713 215.92C394.675 215.875 394.646 215.823 394.628 215.767C394.609 215.711 394.602 215.651 394.607 215.593C394.612 215.534 394.628 215.477 394.655 215.424L399.916 205.1C399.964 205.007 400.043 204.933 400.14 204.892C400.237 204.851 400.345 204.846 400.446 204.877C400.546 204.907 400.633 204.972 400.691 205.06C400.748 205.148 400.773 205.254 400.761 205.358H400.762Z" fill="#0A0A0A"/>
<path opacity="0.2" d="M407.947 211.79C407.941 211.841 407.926 211.89 407.903 211.935L403.831 220.083C403.774 220.182 403.681 220.255 403.572 220.288C403.462 220.321 403.344 220.311 403.242 220.26C403.14 220.209 403.061 220.121 403.022 220.013C402.983 219.906 402.986 219.788 403.031 219.683L407.103 211.536C407.15 211.441 407.229 211.366 407.326 211.324C407.423 211.281 407.532 211.275 407.634 211.306C407.735 211.336 407.822 211.402 407.88 211.491C407.938 211.579 407.962 211.686 407.949 211.791L407.947 211.79Z" fill="#0A0A0A"/>
<path opacity="0.2" d="M414.933 220.794C414.925 220.848 414.909 220.901 414.884 220.949L412.871 224.749C412.813 224.85 412.718 224.924 412.606 224.956C412.494 224.988 412.375 224.975 412.272 224.921C412.169 224.866 412.092 224.774 412.056 224.664C412.019 224.554 412.027 224.434 412.078 224.329L414.091 220.529C414.14 220.437 414.22 220.364 414.317 220.325C414.414 220.285 414.522 220.281 414.622 220.312C414.722 220.343 414.808 220.409 414.864 220.497C414.921 220.585 414.945 220.69 414.933 220.794Z" fill="#0A0A0A"/>
<path d="M367.081 227.7L329.393 335.8L268.141 255.7L210.829 303.593L316.713 416.66C320.479 420.962 325.317 424.189 330.735 426.015C336.153 427.84 341.958 428.198 347.559 427.052C353.16 425.906 358.358 423.297 362.624 419.49C366.89 415.684 370.071 410.815 371.845 405.38L423.454 246.2L367.081 227.7Z" fill="#F96F5D"/>
<path d="M32.6018 459.769C27.3489 459.769 22.1736 458.5 17.5168 456.07C12.8599 453.639 8.85928 450.12 5.85556 445.81C2.85184 441.501 0.933978 436.529 0.265252 431.319C-0.403473 426.109 0.196749 420.814 2.01482 415.886C3.85982 410.886 47.2898 293.1 55.5238 271.878L116.317 295.463C111.688 307.396 94.9168 352.625 81.4368 389.063L103.825 386.629L110.873 451.455L36.1298 459.581C34.9581 459.707 33.7803 459.77 32.6018 459.769Z" fill="#F96F5D"/>
<path d="M71.6739 456.439L61.7319 505.925H254.834L243.712 455.498L71.6739 456.439Z" fill="#262626"/>
<path d="M113.426 235.285C97.2919 236.485 80.8409 241.725 68.7259 252.448C50.4549 268.622 52.0809 278.731 61.2019 323.519C69.0499 362.057 65.9359 378.897 71.1859 450.011C71.3409 452.106 71.6719 456.439 71.6719 456.439L244.258 456.153C244.258 456.153 260.428 361.804 269.358 318.287C276.148 285.204 293.981 245.042 218.788 236.948C218.59 236.927 158.283 231.957 113.426 235.285Z" fill="#F96F5D"/>
<path d="M218.788 236.951C218.588 236.925 213.11 257.54 170.36 254.331C140.76 252.114 133.548 231.969 132.87 231.969C136.061 231.291 141.242 230.587 142.66 229.83C147.32 227.33 150.715 224.278 152.423 217.737C153.76 212.621 154.441 192.926 154.441 183.046L199.982 193.279C199.347 204.425 194.904 230.265 210.476 234.838C213.067 235.6 215.858 236.29 218.788 236.951Z" fill="#E98862"/>
<path d="M198.402 215.193C180.449 216.609 157.386 209.029 153.002 185.076L149.049 163.463C144.669 139.51 153.698 117.791 176.249 113.663C198.802 109.538 219.211 125.873 223.592 149.826L225.342 159.394C227.031 168.589 230.439 212.665 198.402 215.193Z" fill="#E98862"/>
<path d="M215.053 193.2C211.83 177.007 210.353 166.2 210.524 154.807C215.063 146.845 213.87 137.707 212.838 133.758C217.287 136.185 219.147 136.45 223.338 136.45C223.338 136.45 215.831 106.323 190.316 98.2159C185.625 96.3899 173.646 94.0829 157.74 96.2649C144.211 98.1199 110.863 108.236 106.099 145.779V145.8C105.941 147.045 102.739 181.636 96.3558 198.233C87.7738 220.544 75.7258 227.476 76.0318 253.218C76.4248 286.33 137.298 290.737 174.014 288.26C210.73 285.783 231.226 273.711 231.492 249.848C231.783 223.114 221.502 225.6 215.053 193.2Z" fill="#0A0A0A"/>
<path d="M215.063 179.627C208.21 180.881 201.313 174.565 200.063 167.711C198.813 160.857 203.674 156.061 210.528 154.811L215.063 179.627Z" fill="#E98862"/>
<path d="M261.373 361.814C261.346 361.814 261.318 361.811 261.292 361.806C261.236 361.795 261.182 361.774 261.134 361.743C261.086 361.711 261.045 361.671 261.013 361.624C260.981 361.577 260.958 361.524 260.947 361.468C260.935 361.412 260.934 361.354 260.945 361.298L268.182 315.966C268.208 315.857 268.274 315.763 268.368 315.702C268.462 315.641 268.576 315.618 268.686 315.639C268.795 315.66 268.893 315.722 268.958 315.813C269.024 315.904 269.051 316.016 269.036 316.127L261.802 361.46C261.783 361.56 261.73 361.65 261.651 361.715C261.573 361.78 261.474 361.815 261.373 361.814Z" fill="#0C0C0C"/>
<path d="M71.6739 456.874C71.5615 456.874 71.4535 456.831 71.3726 456.753C71.2916 456.675 71.2441 456.568 71.2399 456.456L65.8319 316.064C65.8295 316.007 65.8384 315.95 65.8581 315.896C65.8777 315.843 65.9078 315.793 65.9466 315.751C65.9853 315.709 66.032 315.676 66.0838 315.652C66.1357 315.628 66.1918 315.614 66.2489 315.612C66.3627 315.613 66.472 315.656 66.5555 315.734C66.6389 315.811 66.6904 315.917 66.6999 316.03L72.1089 456.423C72.1133 456.538 72.0717 456.651 71.9933 456.735C71.9149 456.82 71.8062 456.87 71.6909 456.874H71.6739Z" fill="#0C0C0C"/>
<path opacity="0.21" d="M445.308 274.213C445.163 274.213 445.02 274.182 444.888 274.121C444.757 274.061 444.64 273.972 444.546 273.862L435.937 263.744C435.851 263.644 435.787 263.528 435.746 263.403C435.706 263.278 435.69 263.146 435.7 263.015C435.711 262.884 435.747 262.756 435.807 262.639C435.866 262.522 435.949 262.417 436.049 262.332C436.149 262.247 436.265 262.182 436.39 262.141C436.515 262.101 436.647 262.085 436.778 262.096C436.909 262.106 437.037 262.142 437.154 262.202C437.271 262.262 437.375 262.344 437.461 262.444L444.844 271.121L454.517 235.86C454.575 235.649 454.7 235.462 454.875 235.329C455.049 235.196 455.262 235.124 455.481 235.124H455.487L547.053 235.624C547.184 235.624 547.314 235.651 547.435 235.701C547.556 235.752 547.666 235.826 547.759 235.919C547.852 236.012 547.925 236.123 547.975 236.244C548.025 236.366 548.05 236.496 548.05 236.627C548.049 236.758 548.023 236.888 547.973 237.009C547.922 237.131 547.848 237.241 547.755 237.333C547.662 237.426 547.551 237.499 547.43 237.549C547.308 237.599 547.178 237.624 547.047 237.624H547.041L456.241 237.13L446.27 273.477C446.212 273.688 446.086 273.874 445.912 274.007C445.738 274.14 445.525 274.212 445.306 274.212L445.308 274.213Z" fill="#F96F5D"/>
<g opacity="0.2">
<path opacity="0.2" d="M466.94 260C467.992 257.494 469.299 255.103 470.84 252.864C471.358 252.113 472.063 250.775 473.149 251.204C474.168 251.802 475.069 252.581 475.807 253.504C477.262 255.135 478.941 256.552 480.792 257.714C482.689 258.767 484.917 259.056 487.02 258.522C489.181 257.824 491.25 256.867 493.183 255.674C495.381 254.448 497.861 253.818 500.377 253.846C503.096 254.001 505.792 254.442 508.419 255.161C511.147 255.797 513.886 256.354 516.661 256.745C522.937 257.636 529.294 257.822 535.612 257.3C537.022 257.183 537.035 254.966 535.612 255.085C529.745 255.58 523.842 255.455 518.002 254.713C515.088 254.322 512.196 253.785 509.337 253.104C506.618 252.378 503.841 251.894 501.037 251.657C498.393 251.5 495.752 252.002 493.35 253.117C491.285 254.077 489.384 255.434 487.213 256.158C486.187 256.524 485.088 256.634 484.01 256.477C482.932 256.32 481.909 255.902 481.031 255.258C479.282 253.862 477.635 252.343 476.104 250.712C475.111 249.797 473.977 248.806 472.537 248.866C471.923 248.954 471.337 249.178 470.821 249.521C470.306 249.865 469.873 250.319 469.556 250.852C467.725 253.333 466.204 256.027 465.026 258.876C464.888 259.132 464.852 259.431 464.926 259.713C465.001 259.994 465.179 260.237 465.426 260.392C465.68 260.538 465.982 260.578 466.266 260.503C466.55 260.428 466.793 260.245 466.942 259.992L466.94 260Z" fill="#F96F5D"/>
</g>
<path d="M583.128 505.259H694.638V473.259H583.128V505.259Z" fill="#F96F5D"/>
<path opacity="0.69" d="M583.128 505.259H694.638V473.259H583.128V505.259Z" fill="white"/>
<path opacity="0.65" d="M598.103 505.259H612.715V473.259H598.103V505.259Z" fill="white"/>
<path opacity="0.65" d="M619.636 498.304H680.39V479.341H619.636V498.304Z" fill="white"/>
<path d="M556.541 473.289H666.519V441.289H556.541V473.289Z" fill="#F96F5D"/>
<path opacity="0.6" d="M556.541 473.289H666.519V441.289H556.541V473.289Z" fill="white"/>
<path opacity="0.42" d="M570.594 466.335H630.513V447.372H570.594V466.335Z" fill="white"/>
<path opacity="0.42" d="M637.338 473.289H651.749V441.289H637.338V473.289Z" fill="white"/>
<path d="M502.841 505.257L575.286 420.486L550.959 399.697L478.514 484.468L502.841 505.257Z" fill="#F96F5D"/>
<path opacity="0.78" d="M502.841 505.257L575.286 420.486L550.959 399.697L478.514 484.468L502.841 505.257Z" fill="white"/>
<path opacity="0.2" d="M512.57 493.874L522.063 482.766L497.736 461.977L488.243 473.085L512.57 493.874Z" fill="#F96F5D"/>
<path opacity="0.2" d="M521.272 472.986L560.743 426.8L546.327 414.48L506.857 460.666L521.272 472.986Z" fill="#F96F5D"/>
<path opacity="0.21" d="M601.833 391.64L538.112 281.271C538.077 281.215 538.036 281.164 537.989 281.118C537.898 281.009 537.784 280.922 537.656 280.862C537.527 280.802 537.387 280.771 537.245 280.771C537.104 280.771 536.964 280.802 536.835 280.862C536.707 280.922 536.593 281.009 536.502 281.118C536.455 281.164 536.413 281.215 536.379 281.271L472.658 391.64C472.57 391.792 472.524 391.964 472.524 392.14C472.524 392.316 472.57 392.488 472.658 392.64C472.746 392.792 472.872 392.918 473.024 393.006C473.176 393.094 473.348 393.14 473.524 393.14H600.967C601.142 393.14 601.315 393.094 601.467 393.006C601.619 392.918 601.745 392.792 601.833 392.64C601.921 392.488 601.967 392.316 601.967 392.14C601.967 391.964 601.921 391.792 601.833 391.64ZM536.245 391.14H498.902C499.404 387.007 498.34 382.836 495.919 379.448C493.498 376.061 489.896 373.703 485.823 372.84L536.245 285.5V391.14ZM538.245 285.503L588.584 372.692C588.48 372.671 588.373 372.667 588.268 372.68C584.032 373.389 580.233 375.703 577.66 379.141C575.086 382.579 573.937 386.876 574.451 391.14H538.245V285.503ZM484.772 374.658C488.532 375.302 491.896 377.38 494.156 380.454C496.415 383.528 497.394 387.359 496.887 391.14H475.256L484.772 374.658ZM576.464 391.14C575.956 387.355 576.938 383.52 579.202 380.444C581.466 377.368 584.836 375.292 588.602 374.653C588.771 374.622 588.93 374.548 589.061 374.437C589.193 374.327 589.294 374.184 589.353 374.022L599.237 391.14H576.464Z" fill="#F96F5D"/>
<g opacity="0.2">
<path opacity="0.2" d="M654.865 63.614H419.625C419.36 63.614 419.105 63.5087 418.918 63.3211C418.73 63.1336 418.625 62.8792 418.625 62.614C418.625 62.3488 418.73 62.0944 418.918 61.9069C419.105 61.7194 419.36 61.614 419.625 61.614H654.865C655.13 61.614 655.385 61.7194 655.572 61.9069C655.76 62.0944 655.865 62.3488 655.865 62.614C655.865 62.8792 655.76 63.1336 655.572 63.3211C655.385 63.5087 655.13 63.614 654.865 63.614Z" fill="#F96F5D"/>
</g>
<g opacity="0.2">
<path opacity="0.2" d="M408.671 198.367C408.406 198.367 408.151 198.262 407.964 198.074C407.776 197.887 407.671 197.632 407.671 197.367V71.938C407.671 71.6728 407.776 71.4184 407.964 71.2309C408.151 71.0433 408.406 70.938 408.671 70.938C408.936 70.938 409.19 71.0433 409.378 71.2309C409.566 71.4184 409.671 71.6728 409.671 71.938V197.367C409.671 197.632 409.566 197.887 409.378 198.074C409.19 198.262 408.936 198.367 408.671 198.367Z" fill="#F96F5D"/>
</g>
<path d="M655.865 173.969V151.1C655.871 151.037 655.871 150.973 655.865 150.91V124.752C655.871 124.689 655.871 124.625 655.865 124.562V99.062C655.871 98.9988 655.871 98.9352 655.865 98.872V72.178C655.871 72.1145 655.871 72.0505 655.865 71.987V71.938C655.865 71.6728 655.76 71.4184 655.572 71.2309C655.385 71.0433 655.13 70.938 654.865 70.938H419.625C419.36 70.938 419.105 71.0433 418.918 71.2309C418.73 71.4184 418.625 71.6728 418.625 71.938V197.367C418.625 197.392 418.638 197.412 418.639 197.436C418.643 197.661 418.734 197.876 418.892 198.036C418.902 198.046 418.905 198.061 418.915 198.071C419.009 198.164 419.12 198.238 419.242 198.289C419.363 198.34 419.493 198.366 419.624 198.366H527.948C528.091 198.459 528.257 198.508 528.427 198.508C528.597 198.508 528.763 198.459 528.906 198.366H556.514C556.657 198.459 556.823 198.508 556.993 198.508C557.163 198.508 557.329 198.459 557.472 198.366H582.157C582.3 198.459 582.466 198.508 582.636 198.508C582.806 198.508 582.972 198.459 583.115 198.366H607.515C607.658 198.459 607.824 198.508 607.994 198.508C608.164 198.508 608.33 198.459 608.473 198.366H631.253C631.396 198.459 631.562 198.508 631.733 198.508C631.903 198.508 632.069 198.459 632.212 198.366H654.866C655.131 198.366 655.386 198.261 655.573 198.073C655.761 197.886 655.866 197.631 655.866 197.366V174.166C655.872 174.1 655.872 174.034 655.865 173.969ZM610.565 196.369L653.865 153.428V173.678L631.453 196.369H610.565ZM585.178 196.369L653.866 127.108V150.608L607.725 196.365L585.178 196.369ZM559.537 196.369L653.866 101.41V124.268L582.361 196.368L559.537 196.369ZM530.999 196.369L653.865 74.5V98.57L556.717 196.37L530.999 196.369ZM503.226 196.369L628.371 72.938H652.602L528.158 196.367L503.226 196.369ZM475.526 196.369L600.668 72.938H625.522L500.376 196.367L475.526 196.369ZM449.133 196.369L574.275 72.938H597.82L472.674 196.367L449.133 196.369ZM422.058 196.369L546.494 72.938H571.427L446.281 196.367L422.058 196.369ZM420.625 95.791L443.196 72.938H464.089L420.625 116.038V95.791ZM420.625 118.857L466.925 72.938H489.47L420.625 142.36V118.857ZM420.625 145.2L492.29 72.938H515.114L420.625 168.058V145.2ZM420.625 170.9L517.933 72.942H543.654L420.625 194.967V170.9ZM440.384 72.942L420.625 92.942V72.942H440.384ZM634.266 196.367L653.866 176.523V196.367H634.266Z" fill="#009FB7"/>
</svg>
