<svg width="274" height="572" viewBox="0 0 274 572" fill="none" xmlns="http://www.w3.org/2000/svg">
<path d="M175.47 351.166H50.6189C41.2149 351.166 33.5916 358.789 33.5916 368.193C33.5916 377.597 41.2149 385.22 50.6189 385.22H175.47C184.874 385.22 192.497 377.597 192.497 368.193C192.497 358.789 184.874 351.166 175.47 351.166Z" fill="white" stroke="#D8BAA3" stroke-width="6" stroke-miterlimit="10"/>
<path d="M43.8671 568.468C43.7183 568.471 43.5706 568.442 43.434 568.383C43.2973 568.324 43.175 568.236 43.0752 568.126C42.9754 568.015 42.9004 567.885 42.8554 567.743C42.8104 567.601 42.7963 567.451 42.8142 567.303L68.4368 385.22H151.932L44.7954 567.948C44.6994 568.108 44.5633 568.24 44.4004 568.331C44.2376 568.423 44.0537 568.47 43.8671 568.468V568.468Z" stroke="#D8BAA3" stroke-width="6" stroke-miterlimit="10"/>
<path d="M181.207 568.468C181.357 568.471 181.506 568.442 181.643 568.382C181.78 568.322 181.903 568.233 182.002 568.121C182.102 568.009 182.176 567.877 182.219 567.733C182.262 567.59 182.273 567.439 182.252 567.29L152.361 385.22H68.8667L180.296 567.965C180.393 568.12 180.527 568.247 180.687 568.335C180.846 568.423 181.025 568.469 181.207 568.468V568.468Z" stroke="#D8BAA3" stroke-width="6" stroke-miterlimit="10"/>
<path d="M208.897 499.946C214.69 500.522 224.068 501.665 235.255 500.604C232.384 511.683 231.064 522.277 228.976 531.689C227.626 537.748 235.852 545.953 238.345 551.888C238.282 551.854 238.217 551.824 238.151 551.797C226.745 549.979 211.472 560.767 213.044 543.928C214.553 527.073 210.758 514.709 208.897 499.946Z" fill="#B65A18"/>
<path d="M213.388 531.534C209.464 531.534 202.24 538.621 202.872 549.967C203.224 556.66 204.331 563.291 206.172 569.736H251.942C254.091 553.521 238.151 551.772 238.151 551.772C226.741 549.954 212.043 560.741 213.616 543.907L213.388 531.534Z" fill="#EE6B5A"/>
<path d="M177.094 500.376C182.888 500.952 195.274 501.665 206.46 500.604C203.59 511.683 201.901 531.689 201.901 531.689C200.551 537.748 208.777 545.953 211.269 551.888C211.207 551.854 211.142 551.824 211.076 551.797C199.67 549.979 184.396 560.767 185.969 543.928C187.478 527.073 177.094 500.376 177.094 500.376Z" fill="#C36F0B"/>
<path d="M185.453 531.534C181.53 531.534 175.165 538.621 175.797 549.967C176.149 556.66 177.256 563.291 179.097 569.736H224.867C227.016 553.521 211.076 551.772 211.076 551.772C199.666 549.954 184.968 560.741 186.541 543.907L185.453 531.534Z" fill="#F96F5D"/>
<path d="M85.1247 256.11C85.1247 256.11 45.7969 303.707 48.5946 335.449C51.3924 367.192 83.9944 376.578 144.003 375.877C144.003 375.877 145.76 423.491 176.923 500.509C176.923 500.509 191.384 503.303 209.155 500.509C209.155 500.509 224.197 502.026 235.371 500.436C235.371 500.436 259.197 344.711 256.3 328.917C252.462 307.987 176.622 289.108 156.99 284.574L140.577 256.11C140.577 256.11 107.623 260.296 85.1247 256.11Z" fill="#3F4D90"/>
<path d="M129.206 302.985C129.206 302.985 192.106 319.488 199.786 339.717C207.466 359.946 207.857 502.228 207.857 502.228" stroke="white" stroke-width="4" stroke-miterlimit="10"/>
<path d="M161.004 196.549C161.004 196.549 158.563 230.556 140.418 256.192C140.418 256.192 110.764 261.25 84.9785 256.192C84.9785 256.192 59.429 229.323 52.1058 200.202C52.1058 200.202 27.7767 150.856 38.783 142.485C49.7893 134.113 77.174 119.707 77.174 119.707L132.876 122.44C139.752 126.618 154.411 133.447 169.062 141.118L161.004 196.549Z" fill="#F0E1D4"/>
<path d="M115.866 185.259C118.085 185.259 119.884 183.46 119.884 181.241C119.884 179.022 118.085 177.223 115.866 177.223C113.646 177.223 111.847 179.022 111.847 181.241C111.847 183.46 113.646 185.259 115.866 185.259Z" fill="#F0E1D4" stroke="white" stroke-width="5" stroke-linejoin="round"/>
<path d="M115.866 201.521C118.085 201.521 119.884 199.722 119.884 197.503C119.884 195.284 118.085 193.485 115.866 193.485C113.646 193.485 111.847 195.284 111.847 197.503C111.847 199.722 113.646 201.521 115.866 201.521Z" fill="#F0E1D4" stroke="white" stroke-width="5" stroke-linejoin="round"/>
<path d="M115.866 217.78C118.085 217.78 119.884 215.98 119.884 213.761C119.884 211.542 118.085 209.743 115.866 209.743C113.646 209.743 111.847 211.542 111.847 213.761C111.847 215.98 113.646 217.78 115.866 217.78Z" fill="#F0E1D4" stroke="white" stroke-width="5" stroke-linejoin="round"/>
<path d="M169.028 141.114C183.674 148.789 226.771 247.566 208.837 258.01C171.593 279.726 161.004 196.553 161.004 196.553L169.028 141.114Z" fill="#F0E1D4"/>
<path d="M193.167 261.091C198.196 263.24 211.17 259.282 225.589 249.836C240.008 240.389 223.651 234.153 223.651 234.153C223.651 234.153 204.483 226.461 192.789 232.005C181.095 237.549 183.536 256.944 193.167 261.091Z" fill="#B65A18"/>
<path d="M271.002 212.902H192.278L105.895 269.446H184.615L271.002 212.902Z" fill="white" stroke="#3F4D79" stroke-width="5" stroke-linejoin="round"/>
<path d="M241.894 236.229C241.894 234.175 228.838 222.09 223.844 226.654C221.751 228.562 221.631 244.949 221.824 247.906C222.434 257.318 241.787 246.767 241.894 236.229Z" fill="#C36F0B"/>
<path d="M38.7487 142.485C34.2749 146.035 -13.2228 218.347 3.58532 251.645C22.5466 289.232 99.5777 258.023 99.5777 258.023C99.5777 258.023 89.8048 255.014 96.0837 242.457C96.0837 242.457 64.2123 225.498 38.5768 230.556C38.5768 230.556 58.4577 197.593 60.5507 184.688C62.6437 171.782 54.7962 129.755 38.7487 142.485Z" fill="#F0E1D4"/>
<path d="M116.227 220.453L130.263 251.804" stroke="#F96F5D" stroke-width="6" stroke-miterlimit="10"/>
<path d="M96.1053 241.451C96.1053 241.451 110.232 233.397 115.874 236.414C122.059 239.715 129.477 250.167 130.156 251.924C130.835 253.682 130.641 255.509 130.534 257.391C130.426 259.273 117.641 259.166 115.183 259.024C112.724 258.882 99.5305 260.447 97.227 258.19C88.7735 249.913 96.1053 241.451 96.1053 241.451Z" fill="#C36F0B"/>
<path d="M115.178 259.024C117.654 259.166 128.956 259.308 130.396 257.967C133.254 255.315 131.617 251.353 130.186 249.802C128.875 248.375 121.9 239.715 115.87 236.427C115.87 236.427 122.862 248.594 115.178 259.037" fill="#B65A18"/>
<path d="M91.9408 29.1254C91.9408 29.1254 85.662 19.0088 91.9408 13.7785C98.2197 8.54828 100.803 0.0561242 112.17 0.000254729C123.911 -0.0556147 128.596 9.09838 133.972 8.19588C141.278 6.97105 146.401 4.61593 155.679 9.51096C163.106 13.4304 163.415 28.1241 170.945 27.3806C176.936 26.7918 183.588 27.17 186.988 33.8271C189.566 38.8682 186.816 52.4875 190.649 56.1491C194.483 59.8107 203.542 61.0054 204.256 70.4474C205.201 83.2071 191.878 85.0852 195.36 95.2147C199.941 108.537 193.477 116.901 182.106 118.422C174.108 119.484 160.054 107.592 154.901 115.805C150.505 122.806 141.295 125.921 129.975 121.392C118.655 116.862 111.663 118.25 104.688 121.216C97.7126 124.181 89.1646 128.363 83.41 123.304C77.6554 118.246 70.7104 118.104 63.0477 121.271C52.4153 125.668 41.0051 118.439 42.419 108.834C43.5922 100.896 32.6977 99.8949 31.4342 90.8698C29.7839 79.0814 47.1292 76.0472 42.0709 70.9889C37.0125 65.9305 37.193 51.1423 52.179 49.1826C66.3956 47.3346 63.3529 38.4771 67.3626 32.4217C70.7448 27.3591 81.3041 20.9298 91.9408 29.1254Z" fill="#F96F5D"/>
<path d="M35.9811 68.2125C31.2536 62.8576 32.7621 46.3804 47.8383 45.3533C62.1409 44.382 59.6396 35.3526 64.0189 29.5723C67.7063 24.7116 80.0664 18.9098 91.7646 29.0609" stroke="#F96F5D" stroke-width="3" stroke-miterlimit="10"/>
<path d="M93.9692 72.6004C93.8618 81.6255 94.4248 106.513 77.1396 119.703C77.1396 119.703 108.177 135.29 115.182 169.822C115.182 169.822 120.112 133.425 132.842 122.436C132.842 122.436 117.757 113.884 121.07 72.5833L93.9692 72.6004Z" fill="#C36F0B"/>
<path d="M123.911 108.365C121.762 110.308 119.338 111.417 116.708 111.417C105.818 111.417 94.975 94.8278 93.9307 77.0914C93.965 75.3465 93.965 73.8252 93.9822 72.6003H121.083C119.721 89.3913 121.418 100.776 123.911 108.365Z" fill="#B65A18"/>
<path d="M92.9895 64.4351C93.1098 59.8967 94.7085 36.1823 113.915 37.0547C133.121 37.9271 136.237 57.2838 134.518 72.8069C132.799 88.33 123.344 98.7905 116.73 98.0943C110.116 97.3981 92.4651 83.6198 92.9895 64.4351Z" fill="#C36F0B"/>
</svg>
